<svg width="18" height="18" viewBox="0 0 18 18" fill="none" xmlns="http://www.w3.org/2000/svg">
<path d="M9.83342 4.83464H8.16675V8.16797H4.83342V9.83464H8.16675V13.168H9.83342V9.83464H13.1667V8.16797H9.83342V4.83464ZM9.00008 0.667969C4.40008 0.667969 0.666748 4.4013 0.666748 9.0013C0.666748 13.6013 4.40008 17.3346 9.00008 17.3346C13.6001 17.3346 17.3334 13.6013 17.3334 9.0013C17.3334 4.4013 13.6001 0.667969 9.00008 0.667969ZM9.00008 15.668C5.32508 15.668 2.33341 12.6763 2.33341 9.0013C2.33341 5.3263 5.32508 2.33464 9.00008 2.33464C12.6751 2.33464 15.6667 5.3263 15.6667 9.0013C15.6667 12.6763 12.6751 15.668 9.00008 15.668Z" fill="#5AAED3"/>
</svg>
