<svg width="279" height="266" viewBox="0 0 279 266" fill="none" xmlns="http://www.w3.org/2000/svg">
<path d="M64.4219 265.917L184.423 226.74C183.144 223.181 182.593 219.401 182.801 215.625C183.009 211.849 183.972 208.153 185.633 204.756C187.294 201.359 189.619 198.331 192.472 195.85C195.324 193.369 198.644 191.486 202.236 190.314C205.829 189.141 209.62 188.702 213.385 189.022C217.15 189.343 220.812 190.416 224.155 192.179C227.498 193.943 230.453 196.359 232.845 199.287C235.238 202.214 237.019 205.592 238.083 209.221L279 195.862L215.174 0.015625L0.595947 70.0707L64.4219 265.917Z" fill="#F2F2F2"/>
<path d="M211.101 240.42C223.755 240.42 234.013 230.153 234.013 217.488C234.013 204.822 223.755 194.555 211.101 194.555C198.446 194.555 188.188 204.822 188.188 217.488C188.188 230.153 198.446 240.42 211.101 240.42Z" fill="#5AAED3"/>
</svg>
