<svg width="218" height="164" viewBox="0 0 218 164" fill="none" xmlns="http://www.w3.org/2000/svg">
<g clip-path="url(#clip0)">
<path d="M18.6561 161.31C28.9596 161.31 37.3122 160.667 37.3122 159.874C37.3122 159.08 28.9596 158.438 18.6561 158.438C8.35263 158.438 0 159.08 0 159.874C0 160.667 8.35263 161.31 18.6561 161.31Z" fill="#E6E6E6"/>
<path d="M58.9 164.001C69.2035 164.001 77.5561 163.358 77.5561 162.565C77.5561 161.772 69.2035 161.129 58.9 161.129C48.5965 161.129 40.2439 161.772 40.2439 162.565C40.2439 163.358 48.5965 164.001 58.9 164.001Z" fill="#E6E6E6"/>
<path d="M200.759 0H106.619C106.07 0.000674792 105.544 0.221051 105.156 0.612792C104.767 1.00453 104.549 1.53566 104.548 2.08966V161.182C104.549 161.737 104.767 162.268 105.155 162.66C105.543 163.052 106.07 163.272 106.619 163.272H200.759C201.252 163.272 201.729 163.095 202.104 162.771C202.478 162.448 202.726 162 202.802 161.508C202.821 161.401 202.83 161.292 202.83 161.182V2.08966C202.829 1.53566 202.611 1.00453 202.223 0.612792C201.834 0.221051 201.308 0.00067408 200.759 0ZM202.001 161.182C202.001 161.515 201.871 161.834 201.638 162.069C201.405 162.304 201.089 162.436 200.759 162.436H106.619C106.289 162.436 105.973 162.304 105.74 162.069C105.507 161.834 105.377 161.515 105.377 161.182V2.08966C105.377 1.75729 105.508 1.43867 105.741 1.20364C105.974 0.968619 106.29 0.836362 106.619 0.835864H200.759C201.088 0.836362 201.404 0.968619 201.637 1.20364C201.87 1.43867 202.001 1.75729 202.001 2.08966V161.182Z" fill="#E6E6E6"/>
<path d="M114.073 11.7344C113.853 11.7346 113.643 11.8228 113.487 11.9795C113.332 12.1362 113.245 12.3486 113.245 12.5703V47.1193C113.245 47.3409 113.332 47.5534 113.487 47.7101C113.643 47.8668 113.853 47.9549 114.073 47.9551H193.305C193.525 47.9549 193.735 47.8668 193.891 47.7101C194.046 47.5534 194.133 47.3409 194.133 47.1193V12.5702C194.133 12.3486 194.046 12.1362 193.891 11.9795C193.735 11.8228 193.525 11.7346 193.305 11.7344L114.073 11.7344Z" fill="#E6E6E6"/>
<path d="M80.9783 38.7676C80.7663 38.7678 80.563 38.8529 80.4131 39.0042C80.2633 39.1555 80.1789 39.3606 80.1787 39.5745V72.9277C80.1789 73.1417 80.2633 73.3468 80.4131 73.4981C80.563 73.6494 80.7663 73.7345 80.9783 73.7347H157.468C157.68 73.7345 157.883 73.6494 158.033 73.4981C158.183 73.3468 158.268 73.1417 158.268 72.9277V39.5745C158.268 39.3606 158.183 39.1555 158.033 39.0042C157.883 38.8529 157.68 38.7678 157.468 38.7676H80.9783Z" fill="#5AAED3"/>
<path d="M42.045 116.239C42.1456 118.737 40.5646 120.951 39.0842 122.941C38.4091 123.873 32.1352 130.19 30.2403 132.951C29.7813 133.621 18.5155 146.745 17.9382 147.961C17.8024 148.249 17.6905 148.548 17.6036 148.854C17.2661 150.02 17.2513 151.275 17.2809 152.518V153.387C17.3401 155.285 17.426 157.191 17.873 159.029C17.9382 159.298 18.0122 159.57 18.0507 159.842C17.9311 159.762 17.8182 159.674 17.7132 159.576L11.5902 154.989L11.2083 154.702C10.8175 153.561 10.4474 152.407 10.0299 151.281C9.78119 150.611 10.0477 149.846 10.4859 149.287C10.9606 148.758 11.4841 148.276 12.0492 147.847C12.483 147.394 12.8699 146.897 13.2039 146.365C17.4289 140.159 29.3283 117.888 30.1958 113.406C31.3395 113.191 32.5113 113.176 33.66 113.361L39.7681 114.18C40.4284 114.269 41.1508 114.392 41.5801 114.903C41.8733 115.286 42.0363 115.755 42.045 116.239Z" fill="#EFB7B9"/>
<path d="M68.1179 121.33C67.9877 122.262 67.6617 123.154 67.1615 123.948C66.5338 124.913 59.3243 143.628 57.083 151.355C56.6714 152.775 56.8876 154.146 56.8432 154.621C56.8076 155.016 56.7751 155.41 56.7454 155.802C56.704 156.289 56.6714 156.776 56.6359 157.26C56.5441 158.542 56.4642 159.889 57.0001 161.055C57.2103 161.515 57.5271 161.912 57.6663 162.373C57.4574 162.264 57.2641 162.127 57.0919 161.966L50.9689 157.379C50.4697 155.952 50.0846 154.486 49.8172 152.996C49.6632 152.15 49.5892 151.179 50.1133 150.531C50.1434 150.491 50.176 150.453 50.211 150.417C50.3819 150.255 50.573 150.117 50.7795 150.005C50.9688 149.9 51.1508 149.782 51.3242 149.652C51.4543 149.549 51.5717 149.431 51.6736 149.299C52.177 148.672 52.3576 147.79 52.5086 146.963C53.1007 143.574 58.1163 122.783 58.0215 122.269C57.9179 121.764 55.0696 116.92 53.1155 115.844C55.143 114.13 57.4557 112.793 59.9461 111.894C60.3849 111.688 60.8706 111.604 61.3525 111.652C61.6103 111.709 61.8566 111.81 62.0808 111.951C63.422 112.71 64.4494 113.905 65.4324 115.1C66.898 116.899 68.3636 119.015 68.1179 121.33Z" fill="#EFB7B9"/>
<path d="M65.4459 114.13C65.2563 115.937 60.2254 117.537 53.8636 118.532C52.2207 118.789 48.184 108.753 46.424 108.923C44.3076 109.127 44.4553 119.514 42.3623 119.57C35.2368 119.76 30.6322 119.023 29.1436 116.891C28.3383 116.694 27.3672 116.228 27.4056 115.397C27.4323 114.922 27.8054 114.501 27.8024 114.035C27.8024 113.222 30.1385 104.323 31.5152 100.101C31.8587 99.0521 32.1074 97.9764 32.4952 96.9395C34.1711 92.266 34.8905 88.6802 37.952 84.7897C38.4204 84.2438 38.8056 83.6304 39.0949 82.9699C39.3576 82.1769 39.4945 81.3469 39.5005 80.5107L39.6693 77.5853C44.2082 77.3702 48.6168 77.4568 53.058 78.425C53.2989 78.4178 53.5329 78.5075 53.7083 78.6744C53.8837 78.8412 53.9863 79.0716 53.9934 79.3148L53.9936 79.3214C54.1653 80.3912 54.2857 81.4659 54.3548 82.5456C54.3569 82.7842 54.3907 83.0213 54.4555 83.2508C54.572 83.5409 54.734 83.8103 54.9351 84.0486C57.5051 87.4491 59.0802 91.519 60.3237 95.5948C61.5673 99.6706 62.5562 103.86 64.1195 107.846C64.6583 109.221 65.363 110.766 65.5051 112.239C66.0677 112.66 65.9433 113.613 65.4459 114.13Z" fill="#2F2E41"/>
<path d="M69.7599 65.1318C70.5415 64.4655 71.3232 63.7962 72.0397 63.0611C73.0507 61.9796 73.9847 60.8273 74.8347 59.6128C75.7407 58.3667 76.6408 57.0908 77.2033 55.6505C77.8399 54.001 78.0353 52.1245 79.1426 50.7559C79.2678 50.5781 79.4417 50.441 79.643 50.3615C80.2737 50.1612 80.7444 50.9591 80.8658 51.6195C81.458 54.8526 80.0457 58.0798 78.6719 61.062C78.2189 62.0451 77.7451 63.0551 76.9605 63.7991C76.53 64.1705 76.0803 64.5186 75.6134 64.842C74.9197 65.4111 74.2813 66.0454 73.7066 66.7365C72.7197 67.868 71.7811 69.0403 70.8909 70.2535C69.7865 71.7476 68.7502 73.3134 67.4416 74.6311C66.1329 75.9489 64.4956 77.0217 62.6629 77.2816C63.1869 77.2099 63.0152 74.1052 62.9589 73.7138C62.879 73.146 62.4941 72.4767 62.4823 71.9209C62.4675 71.2396 62.7428 71.141 63.2994 70.6629L69.7599 65.1318Z" fill="#EFB7B9"/>
<path d="M47.7848 45.5762C47.7848 45.5762 46.0083 54.5406 43.9357 56.0347C41.8632 57.5287 55.1868 59.3216 55.1868 59.3216C55.1868 59.3216 55.4828 52.1501 59.0358 48.8631C62.5887 45.5762 47.7848 45.5762 47.7848 45.5762Z" fill="#EFB7B9"/>
<path d="M59.723 81.1753C60.1623 81.3141 60.6222 81.3748 61.082 81.3546C62.6365 81.3375 64.1685 80.9775 65.5706 80.2997C65.702 80.2484 65.8182 80.1641 65.9081 80.0547C65.9604 79.9403 65.9888 79.8162 65.9913 79.6902C65.9939 79.5642 65.9706 79.4391 65.9229 79.3226C65.088 75.9161 66.6987 72.0525 65.0998 68.9388C63.3618 69.5096 61.4551 70.1341 59.7171 70.6899C59.4506 70.7991 59.1636 70.848 58.8762 70.8333C58.532 70.7611 58.2167 70.5874 57.9702 70.3343C56.0872 68.6908 54.8999 66.4019 53.8251 64.1399C52.7503 61.8779 51.6963 59.5441 50.0028 57.7034C48.3092 55.8627 46.7251 54.8886 44.2499 55.1546C43.3713 55.2758 42.5647 55.7104 41.976 56.3797C40.5785 57.8977 40.3002 60.2075 40.7917 62.2215C41.2832 64.2355 42.4113 66.0194 43.5837 67.7197C45.1115 69.9369 46.7547 72.1212 48.8776 73.7677C50.0261 74.6071 51.218 75.3841 52.4484 76.0954" fill="#E6E6E6"/>
<path d="M54.7427 52.3019C59.6483 52.3019 63.6251 48.2884 63.6251 43.3375C63.6251 38.3866 59.6483 34.373 54.7427 34.373C49.8371 34.373 45.8604 38.3866 45.8604 43.3375C45.8604 48.2884 49.8371 52.3019 54.7427 52.3019Z" fill="#EFB7B9"/>
<path d="M58.2959 69.1362C55.6256 72.314 55.0613 76.3738 54.5149 80.3806C51.8325 79.4632 48.8598 81.0021 46.0826 80.4404C44.6878 79.9717 43.2121 79.7988 41.748 79.9326C40.7206 79.8338 39.7021 79.1824 38.7221 79.514C37.0928 80.5556 38.6794 74.1039 38.5826 72.2288C37.7287 40.5988 63.1489 55.9861 58.2959 69.1362Z" fill="#E6E6E6"/>
<path d="M73.3129 66.3271C74.0945 65.6608 74.8762 64.9914 75.5927 64.2564C76.6037 63.1748 77.5377 62.0225 78.3877 60.8081C79.2937 59.562 80.1937 58.2861 80.7563 56.8458C81.3929 55.1963 81.5883 53.3198 82.6956 51.9512C82.8208 51.7734 82.9947 51.6363 83.196 51.5568C83.8266 51.3566 84.2974 52.1544 84.4188 52.8148C85.011 56.0479 83.5987 59.2751 82.2248 62.2573C81.7718 63.2404 81.2981 64.2504 80.5135 64.9944C80.083 65.3658 79.6333 65.7139 79.1663 66.0373C78.4727 66.6063 77.8342 67.2407 77.2596 67.9317C76.2727 69.0633 75.3341 70.2356 74.4439 71.4488C73.3395 72.9429 72.3032 74.5086 70.9946 75.8264C69.6859 77.1442 68.0486 78.2169 66.2158 78.4769C66.7399 78.4052 66.5682 75.3005 66.5119 74.9091C66.432 74.3413 66.0471 73.672 66.0352 73.1162C66.0204 72.4349 66.2958 72.3363 66.8524 71.8582L73.3129 66.3271Z" fill="#EFB7B9"/>
<path opacity="0.1" d="M57.4077 69.4344L57.3869 69.4733C56.8747 70.4325 56.1079 71.2392 55.5809 72.1955C54.9887 73.2772 54.7133 74.5113 54.4765 75.7274C54.3126 76.5442 54.1616 77.3619 54.0235 78.1807C52.9603 77.5652 51.9322 76.8899 50.9443 76.1577C48.8214 74.5113 47.1781 72.3269 45.6504 70.1067C44.466 68.4065 43.3409 66.6226 42.8583 64.6115C42.3757 62.6005 42.657 60.2877 44.0427 58.7697C44.6312 58.0997 45.4377 57.6641 46.3165 57.5416C48.7918 57.2756 50.3551 58.2408 52.0486 60.0785C53.7422 61.9162 54.7903 64.2619 55.871 66.515C56.3507 67.4921 56.8422 68.4931 57.4077 69.4344Z" fill="black"/>
<path d="M47.8027 56.3499C46.924 56.4711 46.1174 56.9057 45.5288 57.575C44.1313 59.093 43.853 61.4028 44.3444 63.4168C44.8359 65.4308 45.964 67.2148 47.1365 68.915C48.6642 71.1322 50.3075 73.3166 52.4304 74.963C53.5788 75.8024 54.7707 76.5794 56.0011 77.2908C58.0456 78.5617 60.0103 78.1659 61.8842 79.6813C62.295 80.0567 62.7654 80.3597 63.2758 80.5777C63.715 80.7166 64.1749 80.7773 64.6348 80.757C66.1893 80.74 67.7213 79.7823 69.1233 79.1046C69.2547 79.0533 69.3709 78.9689 69.4609 78.8595C69.5132 78.7451 69.5415 78.621 69.544 78.495C69.5466 78.3691 69.5233 78.2439 69.4757 78.1274C68.6407 74.7209 70.2514 73.2478 68.6526 70.1342C66.9146 70.7049 65.0078 71.3294 63.2698 71.8852C63.0033 71.9944 62.7163 72.0434 62.429 72.0286C62.0847 71.9564 61.7694 71.7828 61.523 71.5296C59.6399 69.8861 58.4526 67.5972 57.3779 65.3352C56.3031 63.0732 55.249 60.7394 53.5555 58.8987C51.8619 57.058 50.2779 56.0839 47.8027 56.3499Z" fill="#E6E6E6"/>
<path d="M60.171 162.48C59.7751 162.886 59.2603 163.153 58.7027 163.241C58.145 163.329 57.574 163.234 57.074 162.97C56.8651 162.861 56.6719 162.725 56.4996 162.564L50.3767 157.977L47.9488 156.157C47.6934 155.917 47.4891 155.628 47.3481 155.306C47.2072 154.984 47.1326 154.636 47.129 154.284C47.1254 153.932 47.1929 153.583 47.3272 153.258C47.4615 152.934 47.6599 152.64 47.9103 152.395L49.521 151.128L50.1872 150.602L51.0813 149.897L51.863 149.281L56.8786 152.12L56.9644 152.287L60.7602 159.674C60.9375 160.15 60.9762 160.667 60.8718 161.164C60.7674 161.661 60.5242 162.118 60.171 162.48Z" fill="#2F2E41"/>
<path d="M20.7926 160.091C20.3967 160.497 19.8819 160.764 19.3242 160.852C18.7666 160.941 18.1956 160.846 17.6956 160.581C17.6156 160.539 17.5357 160.492 17.4587 160.441C17.3391 160.362 17.2262 160.273 17.1212 160.175L10.9982 155.588L10.6163 155.301L8.5704 153.768C8.31502 153.529 8.11063 153.239 7.9697 152.917C7.82876 152.595 7.75423 152.248 7.75063 151.896C7.74702 151.544 7.81443 151.195 7.94875 150.87C8.08307 150.545 8.28148 150.251 8.53191 150.006L10.1426 148.739L10.8088 148.213L11.7029 147.508L12.4846 146.893L12.6119 146.964L17.0116 149.453L17.5002 149.731L17.586 149.899L21.3817 157.285C21.5591 157.761 21.5978 158.278 21.4934 158.775C21.389 159.272 21.1458 159.729 20.7926 160.091Z" fill="#2F2E41"/>
<path d="M63.1061 35.6949C59.6667 31.762 55.7886 29.881 51.1389 31.608C43.6786 29.0809 33.8721 46.4485 39.9105 52.747L50.137 53.6075L53.2683 47.917L52.1603 53.8114L60.3402 54.6354C56.1673 48.0873 57.5058 41.7929 63.1061 35.6949Z" fill="#2F2E41"/>
<path d="M101.632 64.0838C105.918 64.0838 109.393 60.5769 109.393 56.2509C109.393 51.9249 105.918 48.418 101.632 48.418C97.3454 48.418 93.8706 51.9249 93.8706 56.2509C93.8706 60.5769 97.3454 64.0838 101.632 64.0838Z" fill="white"/>
<path d="M119.149 55.2091C118.91 55.213 118.683 55.3113 118.516 55.4826C118.349 55.6539 118.256 55.8846 118.256 56.1249C118.256 56.3653 118.349 56.596 118.516 56.7673C118.683 56.9386 118.91 57.0368 119.149 57.0408H143.654C143.894 57.0447 144.127 56.9521 144.3 56.7832C144.473 56.6142 144.572 56.3829 144.576 56.14C144.58 55.8971 144.488 55.6626 144.321 55.488C144.153 55.3134 143.924 55.2131 143.683 55.2091C143.673 55.2089 143.664 55.2089 143.654 55.2091H119.149Z" fill="white"/>
<path d="M119.149 49.9025C118.91 49.9064 118.683 50.0046 118.516 50.176C118.349 50.3473 118.256 50.578 118.256 50.8183C118.256 51.0586 118.349 51.2893 118.516 51.4606C118.683 51.6319 118.91 51.7302 119.149 51.7341H131.386C131.626 51.7379 131.858 51.6452 132.031 51.4762C132.204 51.3073 132.303 51.0761 132.307 50.8333C132.311 50.5906 132.22 50.3561 132.052 50.1816C131.885 50.007 131.656 49.9067 131.416 49.9025C131.406 49.9023 131.396 49.9023 131.386 49.9025H119.149Z" fill="white"/>
<path d="M119.149 60.7677C118.91 60.7717 118.683 60.8699 118.516 61.0412C118.349 61.2125 118.256 61.4432 118.256 61.6835C118.256 61.9238 118.349 62.1545 118.516 62.3258C118.683 62.4972 118.91 62.5954 119.149 62.5993H143.654C143.773 62.6014 143.891 62.5797 144.002 62.5356C144.113 62.4914 144.214 62.4256 144.3 62.342C144.386 62.2583 144.454 62.1585 144.502 62.0481C144.549 61.9377 144.575 61.8189 144.577 61.6986C144.579 61.5782 144.557 61.4587 144.513 61.3468C144.469 61.2349 144.404 61.1328 144.321 61.0463C144.238 60.9599 144.139 60.8908 144.03 60.843C143.92 60.7952 143.803 60.7696 143.683 60.7677C143.673 60.7675 143.663 60.7675 143.654 60.7677H119.149Z" fill="white"/>
<path d="M126.578 86.6839C127.645 86.6839 128.51 85.8107 128.51 84.7335C128.51 83.6564 127.645 82.7832 126.578 82.7832C125.51 82.7832 124.645 83.6564 124.645 84.7335C124.645 85.8107 125.51 86.6839 126.578 86.6839Z" fill="#E6E6E6"/>
<path d="M134.542 83.7248C134.279 83.7292 134.029 83.8376 133.845 84.0265C133.661 84.2154 133.558 84.4697 133.558 84.7346C133.558 84.9995 133.661 85.2538 133.845 85.4427C134.029 85.6316 134.279 85.74 134.542 85.7445H181.716C181.981 85.7477 182.236 85.645 182.426 85.4589C182.616 85.2727 182.725 85.0182 182.729 84.7511C182.733 84.484 182.633 84.2261 182.449 84.0337C182.265 83.8414 182.014 83.7303 181.749 83.7248C181.738 83.7246 181.727 83.7246 181.716 83.7248H134.542Z" fill="#E6E6E6"/>
<path d="M126.578 96.1586C127.645 96.1586 128.51 95.2853 128.51 94.2082C128.51 93.131 127.645 92.2578 126.578 92.2578C125.51 92.2578 124.645 93.131 124.645 94.2082C124.645 95.2853 125.51 96.1586 126.578 96.1586Z" fill="#E6E6E6"/>
<path d="M134.541 93.1974C134.279 93.2019 134.029 93.3102 133.845 93.4991C133.661 93.688 133.558 93.9423 133.558 94.2073C133.558 94.4722 133.661 94.7265 133.845 94.9154C134.029 95.1043 134.279 95.2127 134.541 95.2171H181.716C181.981 95.2205 182.236 95.1178 182.426 94.9316C182.616 94.7455 182.725 94.4909 182.729 94.2238C182.733 93.9566 182.633 93.6986 182.449 93.5063C182.265 93.3139 182.014 93.2028 181.749 93.1974C181.738 93.1972 181.727 93.1972 181.716 93.1974H134.541Z" fill="#E6E6E6"/>
<path d="M126.578 105.631C127.645 105.631 128.51 104.758 128.51 103.681C128.51 102.604 127.645 101.73 126.578 101.73C125.51 101.73 124.645 102.604 124.645 103.681C124.645 104.758 125.51 105.631 126.578 105.631Z" fill="#E6E6E6"/>
<path d="M134.541 102.67C134.279 102.675 134.029 102.783 133.845 102.972C133.661 103.161 133.558 103.415 133.558 103.68C133.558 103.945 133.661 104.199 133.845 104.388C134.029 104.577 134.279 104.685 134.541 104.69H181.716C181.981 104.693 182.236 104.59 182.426 104.404C182.616 104.218 182.725 103.964 182.729 103.696C182.733 103.429 182.633 103.171 182.449 102.979C182.265 102.787 182.014 102.675 181.749 102.67C181.738 102.67 181.727 102.67 181.716 102.67H134.541Z" fill="#E6E6E6"/>
<path d="M126.578 115.104C127.645 115.104 128.51 114.231 128.51 113.153C128.51 112.076 127.645 111.203 126.578 111.203C125.51 111.203 124.645 112.076 124.645 113.153C124.645 114.231 125.51 115.104 126.578 115.104Z" fill="#E6E6E6"/>
<path d="M134.542 112.145C134.279 112.149 134.029 112.258 133.845 112.446C133.661 112.635 133.558 112.89 133.558 113.155C133.558 113.419 133.661 113.674 133.845 113.863C134.029 114.052 134.279 114.16 134.542 114.164H181.716C181.848 114.167 181.979 114.144 182.102 114.095C182.224 114.047 182.336 113.974 182.431 113.882C182.526 113.79 182.602 113.679 182.655 113.557C182.707 113.435 182.735 113.304 182.737 113.171C182.74 113.038 182.716 112.906 182.667 112.782C182.619 112.659 182.546 112.546 182.455 112.451C182.363 112.355 182.253 112.279 182.132 112.227C182.011 112.174 181.881 112.146 181.749 112.145C181.738 112.144 181.727 112.144 181.716 112.145H134.542Z" fill="#E6E6E6"/>
<path d="M126.578 124.576C127.645 124.576 128.51 123.703 128.51 122.626C128.51 121.549 127.645 120.676 126.578 120.676C125.51 120.676 124.645 121.549 124.645 122.626C124.645 123.703 125.51 124.576 126.578 124.576Z" fill="#E6E6E6"/>
<path d="M134.542 121.617C134.279 121.622 134.029 121.73 133.845 121.919C133.661 122.108 133.558 122.362 133.558 122.627C133.558 122.892 133.661 123.146 133.845 123.335C134.029 123.524 134.279 123.633 134.542 123.637H181.716C181.981 123.64 182.236 123.538 182.426 123.351C182.616 123.165 182.725 122.911 182.729 122.644C182.733 122.377 182.633 122.119 182.449 121.926C182.265 121.734 182.014 121.623 181.749 121.617C181.738 121.617 181.727 121.617 181.716 121.617H134.542Z" fill="#E6E6E6"/>
<path d="M126.578 134.049C127.645 134.049 128.51 133.176 128.51 132.099C128.51 131.022 127.645 130.148 126.578 130.148C125.51 130.148 124.645 131.022 124.645 132.099C124.645 133.176 125.51 134.049 126.578 134.049Z" fill="#E6E6E6"/>
<path d="M134.542 131.09C134.279 131.094 134.029 131.203 133.845 131.392C133.661 131.581 133.558 131.835 133.558 132.1C133.558 132.365 133.661 132.619 133.845 132.808C134.029 132.997 134.279 133.105 134.542 133.11H181.716C181.981 133.113 182.236 133.01 182.426 132.824C182.616 132.638 182.725 132.383 182.729 132.116C182.733 131.849 182.633 131.591 182.449 131.399C182.265 131.207 182.014 131.096 181.749 131.09C181.738 131.09 181.727 131.09 181.716 131.09H134.542Z" fill="#E6E6E6"/>
<path d="M126.578 143.524C127.645 143.524 128.51 142.651 128.51 141.573C128.51 140.496 127.645 139.623 126.578 139.623C125.51 139.623 124.645 140.496 124.645 141.573C124.645 142.651 125.51 143.524 126.578 143.524Z" fill="#E6E6E6"/>
<path d="M134.541 140.563C134.279 140.567 134.029 140.675 133.845 140.864C133.661 141.053 133.558 141.308 133.558 141.572C133.558 141.837 133.661 142.092 133.845 142.281C134.029 142.469 134.279 142.578 134.541 142.582H181.716C181.981 142.586 182.236 142.483 182.426 142.297C182.616 142.111 182.725 141.856 182.729 141.589C182.733 141.322 182.633 141.064 182.449 140.871C182.265 140.679 182.014 140.568 181.749 140.563C181.738 140.562 181.727 140.562 181.716 140.563H134.541Z" fill="#E6E6E6"/>
<path d="M218 127.663C217.959 128.691 216.929 149.914 202.802 161.51C202.211 161.995 201.598 162.462 200.961 162.911L200.48 162.438H200.759C201.089 162.438 201.405 162.306 201.638 162.07C201.871 161.835 202.002 161.516 202.002 161.184V119.352C202.297 117.747 202.576 116.17 202.83 114.635C204.207 106.29 204.845 99.2408 203.813 96.3125C204.26 97.4437 213.238 120.58 208.362 144.155C213.191 137.482 217.774 130.477 218 127.663Z" fill="#E6E6E6"/>
</g>
<defs>
<clipPath id="clip0">
<rect width="218" height="164" fill="white"/>
</clipPath>
</defs>
</svg>
