<svg width="90" height="22" viewBox="0 0 90 22" fill="none" xmlns="http://www.w3.org/2000/svg">
<rect width="90" height="22" rx="4" fill="#EEEEEE"/>
<path d="M80.6667 6.2H80V5.6C80 5.27 79.7 5 79.3333 5C78.9667 5 78.6667 5.27 78.6667 5.6V6.2H73.3333V5.6C73.3333 5.27 73.0333 5 72.6667 5C72.3 5 72 5.27 72 5.6V6.2H71.3333C70.5933 6.2 70.0067 6.74 70.0067 7.40001L70 15.8C70 16.1183 70.1405 16.4235 70.3905 16.6486C70.6406 16.8736 70.9797 17 71.3333 17H80.6667C81.4 17 82 16.46 82 15.8V7.40001C82 6.74 81.4 6.2 80.6667 6.2ZM80.6667 9.80001V15.8H71.3333V9.80001H80.6667ZM73.3333 11C73.7 11 74 11.27 74 11.6C74 11.93 73.7 12.2 73.3333 12.2C72.9667 12.2 72.6667 11.93 72.6667 11.6C72.6667 11.27 72.9667 11 73.3333 11ZM76 11C76.3667 11 76.6667 11.27 76.6667 11.6C76.6667 11.93 76.3667 12.2 76 12.2C75.6333 12.2 75.3333 11.93 75.3333 11.6C75.3333 11.27 75.6333 11 76 11ZM78.6667 11C79.0333 11 79.3333 11.27 79.3333 11.6C79.3333 11.93 79.0333 12.2 78.6667 12.2C78.3 12.2 78 11.93 78 11.6C78 11.27 78.3 11 78.6667 11Z" fill="#505050"/>
</svg>
