<svg width="214" height="415" viewBox="0 0 214 415" fill="none" xmlns="http://www.w3.org/2000/svg">
<path d="M106.872 415.001C165.896 415.001 213.745 406.179 213.745 395.296C213.745 384.414 165.896 375.592 106.872 375.592C47.8484 375.592 0 384.414 0 395.296C0 406.179 47.8484 415.001 106.872 415.001Z" fill="#F2F2F2"/>
<path d="M177.169 202.496L176.313 207.64C176.313 207.64 177.597 243.218 168.175 232.073C158.753 220.928 165.178 205.925 165.178 205.925L167.747 201.639L177.169 202.496Z" fill="#FBBEBE"/>
<path d="M122.35 37.8926C122.35 37.8926 120.637 55.8961 119.78 56.7535C118.924 57.6108 132.628 73.8997 132.628 73.8997L144.62 62.7547C144.62 62.7547 143.764 46.4657 146.333 43.0365C148.903 39.6072 122.35 37.8926 122.35 37.8926Z" fill="#FBBEBE"/>
<path opacity="0.1" d="M122.35 37.8926C122.35 37.8926 120.637 55.8961 119.78 56.7535C118.924 57.6108 132.628 73.8997 132.628 73.8997L144.62 62.7547C144.62 62.7547 143.764 46.4657 146.333 43.0365C148.903 39.6072 122.35 37.8926 122.35 37.8926Z" fill="black"/>
<path d="M90.658 366.242V381.674L84.6619 382.531L76.0967 379.959L78.6658 363.67L90.658 366.242Z" fill="#3F3D56"/>
<path d="M82.9488 373.958C82.9488 373.958 80.3792 367.1 76.0964 367.957C71.8137 368.814 70.9571 373.958 70.9571 373.958C70.9571 373.958 67.5309 386.818 62.3916 391.104C57.2523 395.391 52.113 406.536 62.3916 408.251C72.6702 409.965 81.2357 405.679 81.2357 404.821C81.2357 403.964 83.8054 398.82 88.0881 397.963C92.3709 397.106 95.7971 396.248 95.7971 392.819C95.7971 389.39 93.2274 385.961 93.2274 385.961C93.2274 385.961 92.3709 369.699 90.6578 371.828C89.473 373.511 88.6025 375.394 88.0881 377.387L82.9488 373.958Z" fill="#2F2E41"/>
<path d="M127.489 358.527L124.063 371.386L132.628 373.101L136.911 368.815L137.767 357.67L127.489 358.527Z" fill="#3F3D56"/>
<path d="M126.633 369.673C126.633 369.673 130.059 367.101 131.772 367.101H134.342C134.342 367.101 134.342 361.1 138.624 361.1C142.907 361.1 142.051 365.386 142.051 365.386C142.051 365.386 151.473 379.961 154.042 382.532C156.612 385.104 170.317 392.82 159.182 396.249C148.047 399.679 140.338 399.679 135.198 393.678C135.198 393.678 130.059 391.106 126.633 391.106C123.207 391.106 118.924 389.391 118.924 386.819C118.924 384.247 121.493 379.103 121.493 379.103C121.493 379.103 123.207 363.672 124.063 365.386C124.92 367.101 126.633 369.673 126.633 369.673Z" fill="#2F2E41"/>
<path d="M89.8012 161.346V189.637C89.8012 189.637 80.3791 244.505 80.3791 262.509C80.3791 280.512 65.8178 366.243 72.6702 367.958C79.5226 369.673 95.797 372.245 96.6536 369.673C97.5101 367.101 103.506 285.656 104.363 284.799C105.219 283.941 123.207 216.214 123.207 216.214L126.633 217.071L128.346 294.229C128.346 294.229 119.78 363.671 124.063 363.671C128.346 363.671 146.333 362.814 146.333 357.67C146.333 352.526 155.755 257.365 155.755 257.365C155.755 257.365 166.891 181.921 162.608 174.205C158.325 166.49 158.325 162.203 158.325 162.203L89.8012 161.346Z" fill="#2F2E41"/>
<path d="M136.483 51.1812C145.944 51.1812 153.614 43.5045 153.614 34.0349C153.614 24.5653 145.944 16.8887 136.483 16.8887C127.022 16.8887 119.352 24.5653 119.352 34.0349C119.352 43.5045 127.022 51.1812 136.483 51.1812Z" fill="#FBBEBE"/>
<path d="M132.629 63.6107C132.629 63.6107 121.922 54.6089 121.065 51.1797C121.065 51.1797 115.498 56.7522 115.498 57.6095C115.498 58.4668 91.5143 61.0388 85.5184 67.8973C79.5226 74.7558 74.3833 89.3301 74.3833 89.3301L88.9447 116.764C88.9447 116.764 89.8012 132.196 89.8012 133.91C89.8012 135.625 85.5185 163.059 87.2316 163.916C88.9447 164.774 106.076 173.347 120.637 171.632C135.198 169.917 149.76 167.345 154.042 167.345C158.325 167.345 161.751 169.06 161.751 167.345C161.751 165.631 159.182 162.202 159.182 160.487C159.182 158.772 158.325 154.486 158.325 151.914C158.325 149.342 156.612 145.055 156.612 141.626C156.612 138.197 175.456 91.902 175.456 91.902C175.456 91.902 174.6 77.3277 160.895 70.4692C147.19 63.6107 145.477 61.0388 145.477 61.0388C145.477 61.0388 145.21 55.8949 144.487 55.8949C143.764 55.8949 141.194 63.6107 134.342 64.468L132.629 63.6107Z" fill="#9CD2EA"/>
<path d="M86.3748 177.634L92.3709 187.064L107.789 183.635L96.6535 170.775L86.3748 177.634Z" fill="#FBBEBE"/>
<path d="M170.317 85.0449L175.456 91.9034C175.456 91.9034 185.735 141.628 184.022 159.631C182.308 177.635 180.595 191.352 180.595 191.352C180.595 191.352 184.022 204.211 181.452 204.211C178.882 204.211 163.464 205.069 163.464 202.497C163.464 199.925 165.177 183.636 165.177 183.636L160.895 145.914L151.473 133.054L170.317 85.0449Z" fill="#9CD2EA"/>
<path d="M124.848 25.7106C125.898 25.2651 127.112 25.6265 128.236 25.4365C129.557 25.2133 130.738 24.2341 132.072 24.3576C132.704 24.4749 133.318 24.6744 133.898 24.9511C134.189 25.088 134.505 25.1646 134.827 25.1761C135.148 25.1876 135.469 25.1339 135.769 25.0181C135.912 24.9516 136.038 24.8541 136.139 24.7326C136.24 24.6111 136.312 24.4687 136.351 24.3157C136.39 24.1627 136.395 24.0029 136.364 23.848C136.334 23.693 136.27 23.5468 136.176 23.4199C137.304 23.3204 138.371 22.8608 139.218 22.109C139.387 21.9334 139.583 21.7862 139.799 21.673C140.05 21.6073 140.313 21.5941 140.569 21.6341C140.826 21.6741 141.072 21.7666 141.291 21.9056L143.251 22.8099C143.693 22.966 144.081 23.244 144.371 23.6119C144.604 23.9757 144.65 24.4649 144.98 24.7435C145.402 25.099 146.031 24.925 146.581 24.9599C147.081 25.0085 147.545 25.2388 147.886 25.6072C148.226 25.9756 148.42 26.4564 148.43 26.9583C148.423 27.534 148.213 28.2403 148.668 28.5926C148.932 28.797 149.307 28.7643 149.616 28.8899C150.417 29.2154 150.42 30.3317 150.302 31.189C150.183 32.0463 150.242 33.1772 151.066 33.4412C151.645 33.627 152.238 33.2308 152.84 33.1425C153.749 33.0092 154.59 33.5781 155.399 34.0134C156.208 34.4487 157.283 34.7423 157.984 34.1485C158.636 33.596 158.594 32.5852 158.415 31.7488C158.158 30.5497 157.735 29.3922 157.158 28.3097C156.945 27.9912 156.819 27.622 156.794 27.2395C156.843 26.9701 156.948 26.7142 157.103 26.4886C157.258 26.263 157.459 26.0727 157.692 25.9305C158.684 25.1461 159.824 24.3565 160.145 23.1333C160.38 22.2355 160.115 21.2887 160.136 20.3607C160.161 19.2316 160.609 18.1072 160.399 16.9976C160.018 14.9862 157.781 14.0182 156.337 12.568C154.354 10.5751 153.709 7.38772 151.368 5.83123C149.495 4.58603 147.045 4.73468 144.912 4.02224C142.569 3.23961 140.683 1.44157 138.372 0.569301C137.111 0.103654 135.762 -0.0768398 134.422 0.0407497C133.083 0.158339 131.786 0.571108 130.625 1.24945C129.935 1.76123 129.165 2.15483 128.347 2.41422C127.658 2.49414 126.961 2.48605 126.274 2.39015C124.908 2.31963 123.546 2.60074 122.32 3.20667C121.85 3.39447 121.459 3.73765 121.212 4.17898C120.798 5.09883 121.4 6.53682 120.493 6.97664C120.07 7.1817 119.57 6.98526 119.101 6.99558C118.187 7.01566 117.484 7.81131 117.049 8.61579C116.711 9.46628 116.224 10.2501 115.612 10.9309C114.496 11.9098 112.467 12.0716 112.175 13.5283C112.17 14.1451 112.205 14.7616 112.28 15.3738C112.195 16.6648 110.815 17.6459 110.887 18.9376C110.97 20.4276 112.861 21.1556 113.367 22.5595C113.752 23.6284 113.245 24.7843 112.897 25.8656C112.548 26.947 112.443 28.3331 113.343 29.0253C113.696 29.2967 114.15 29.408 114.51 29.6701C115.442 30.3482 115.43 31.7168 115.327 32.865C115.267 33.1034 115.267 33.3527 115.326 33.5912C115.385 33.8297 115.501 34.0501 115.665 34.2331C115.819 34.3263 115.991 34.3856 116.169 34.4071C116.348 34.4285 116.529 34.4116 116.7 34.3575C117.26 34.2218 117.785 33.9731 118.245 33.6267C118.705 33.2803 119.089 32.8435 119.375 32.3432C119.675 31.8467 119.735 31.4091 120.28 31.1457C120.65 30.967 121.099 31.1265 121.475 30.8946C123.266 29.7911 122.65 26.6429 124.848 25.7106Z" fill="#2F2E41"/>
<path d="M76.9527 86.7578L74.3831 89.3298C74.3831 89.3298 58.9652 135.625 64.1045 145.912C69.2437 156.2 79.5224 181.92 82.9486 181.062C86.3748 180.205 98.3665 172.489 98.3665 171.632C98.3665 170.774 83.8051 146.77 83.8051 146.77C83.8051 146.77 82.092 141.626 82.9486 140.769C83.8051 139.911 83.8051 140.769 82.9486 139.054C82.092 137.339 82.092 139.054 83.8051 137.339C85.5182 135.625 85.5182 135.625 85.5182 134.767C85.5182 133.91 90.6575 112.477 90.6575 112.477L76.9527 86.7578Z" fill="#9CD2EA"/>
<path d="M90.229 187.493L109.074 181.492L111.643 187.493L91.0861 191.779L90.229 187.493Z" fill="#2F2E41"/>
<path opacity="0.1" d="M90.229 187.493L109.074 181.492L111.643 187.493L91.0861 191.779L90.229 187.493Z" fill="black"/>
<path opacity="0.1" d="M115.926 58.0391L130.487 70.0412L132.2 67.4691L115.926 58.0391Z" fill="black"/>
<path opacity="0.1" d="M145.048 61.4688L134.77 67.4695L135.627 70.0416L145.048 61.4688Z" fill="black"/>
</svg>
