<svg width="90" height="44" viewBox="0 0 90 44" fill="none" xmlns="http://www.w3.org/2000/svg">
<rect width="90" height="44" rx="4" fill="#EEEEEE"/>
<path d="M11.868 13.14H8.22L7.548 15H6.396L9.42 6.684H10.68L13.692 15H12.54L11.868 13.14ZM11.556 12.252L10.044 8.028L8.532 12.252H11.556ZM19.0179 10.692C19.3219 10.74 19.5979 10.864 19.8459 11.064C20.1019 11.264 20.3019 11.512 20.4459 11.808C20.5979 12.104 20.6739 12.42 20.6739 12.756C20.6739 13.18 20.5659 13.564 20.3499 13.908C20.1339 14.244 19.8179 14.512 19.4019 14.712C18.9939 14.904 18.5099 15 17.9499 15H14.8299V6.636H17.8299C18.3979 6.636 18.8819 6.732 19.2819 6.924C19.6819 7.108 19.9819 7.36 20.1819 7.68C20.3819 8 20.4819 8.36 20.4819 8.76C20.4819 9.256 20.3459 9.668 20.0739 9.996C19.8099 10.316 19.4579 10.548 19.0179 10.692ZM15.9219 10.248H17.7579C18.2699 10.248 18.6659 10.128 18.9459 9.888C19.2259 9.648 19.3659 9.316 19.3659 8.892C19.3659 8.468 19.2259 8.136 18.9459 7.896C18.6659 7.656 18.2619 7.536 17.7339 7.536H15.9219V10.248ZM17.8539 14.1C18.3979 14.1 18.8219 13.972 19.1259 13.716C19.4299 13.46 19.5819 13.104 19.5819 12.648C19.5819 12.184 19.4219 11.82 19.1019 11.556C18.7819 11.284 18.3539 11.148 17.8179 11.148H15.9219V14.1H17.8539ZM21.6013 10.812C21.6013 9.996 21.7853 9.264 22.1533 8.616C22.5213 7.96 23.0213 7.448 23.6533 7.08C24.2933 6.712 25.0013 6.528 25.7773 6.528C26.6893 6.528 27.4853 6.748 28.1653 7.188C28.8453 7.628 29.3413 8.252 29.6533 9.06H28.3453C28.1133 8.556 27.7773 8.168 27.3373 7.896C26.9053 7.624 26.3853 7.488 25.7773 7.488C25.1933 7.488 24.6693 7.624 24.2053 7.896C23.7413 8.168 23.3773 8.556 23.1133 9.06C22.8493 9.556 22.7173 10.14 22.7173 10.812C22.7173 11.476 22.8493 12.06 23.1133 12.564C23.3773 13.06 23.7413 13.444 24.2053 13.716C24.6693 13.988 25.1933 14.124 25.7773 14.124C26.3853 14.124 26.9053 13.992 27.3373 13.728C27.7773 13.456 28.1133 13.068 28.3453 12.564H29.6533C29.3413 13.364 28.8453 13.984 28.1653 14.424C27.4853 14.856 26.6893 15.072 25.7773 15.072C25.0013 15.072 24.2933 14.892 23.6533 14.532C23.0213 14.164 22.5213 13.656 22.1533 13.008C21.7853 12.36 21.6013 11.628 21.6013 10.812ZM30.6308 7.32V6.324H32.8868V15H31.7828V7.32H30.6308ZM34.4506 14.124C35.4666 13.308 36.2626 12.64 36.8386 12.12C37.4146 11.592 37.8986 11.044 38.2906 10.476C38.6906 9.9 38.8906 9.336 38.8906 8.784C38.8906 8.264 38.7626 7.856 38.5066 7.56C38.2586 7.256 37.8546 7.104 37.2946 7.104C36.7506 7.104 36.3266 7.276 36.0226 7.62C35.7266 7.956 35.5666 8.408 35.5426 8.976H34.4866C34.5186 8.08 34.7906 7.388 35.3026 6.9C35.8146 6.412 36.4746 6.168 37.2826 6.168C38.1066 6.168 38.7586 6.396 39.2386 6.852C39.7266 7.308 39.9706 7.936 39.9706 8.736C39.9706 9.4 39.7706 10.048 39.3706 10.68C38.9786 11.304 38.5306 11.856 38.0266 12.336C37.5226 12.808 36.8786 13.36 36.0946 13.992H40.2226V14.904H34.4506V14.124ZM41.2809 8.508C41.3369 7.772 41.6209 7.196 42.1329 6.78C42.6449 6.364 43.3089 6.156 44.1249 6.156C44.6689 6.156 45.1369 6.256 45.5289 6.456C45.9289 6.648 46.2289 6.912 46.4289 7.248C46.6369 7.584 46.7409 7.964 46.7409 8.388C46.7409 8.884 46.5969 9.312 46.3089 9.672C46.0289 10.032 45.6609 10.264 45.2049 10.368V10.428C45.7249 10.556 46.1369 10.808 46.4409 11.184C46.7449 11.56 46.8969 12.052 46.8969 12.66C46.8969 13.116 46.7929 13.528 46.5849 13.896C46.3769 14.256 46.0649 14.54 45.6489 14.748C45.2329 14.956 44.7329 15.06 44.1489 15.06C43.3009 15.06 42.6049 14.84 42.0609 14.4C41.5169 13.952 41.2129 13.32 41.1489 12.504H42.2049C42.2609 12.984 42.4569 13.376 42.7929 13.68C43.1289 13.984 43.5769 14.136 44.1369 14.136C44.6969 14.136 45.1209 13.992 45.4089 13.704C45.7049 13.408 45.8529 13.028 45.8529 12.564C45.8529 11.964 45.6529 11.532 45.2529 11.268C44.8529 11.004 44.2489 10.872 43.4409 10.872H43.1649V9.96H43.4529C44.1889 9.952 44.7449 9.832 45.1209 9.6C45.4969 9.36 45.6849 8.992 45.6849 8.496C45.6849 8.072 45.5449 7.732 45.2649 7.476C44.9929 7.22 44.6009 7.092 44.0889 7.092C43.5929 7.092 43.1929 7.22 42.8889 7.476C42.5849 7.732 42.4049 8.076 42.3489 8.508H41.2809ZM50.9753 6.636C51.8873 6.636 52.6753 6.808 53.3393 7.152C54.0113 7.488 54.5233 7.972 54.8753 8.604C55.2353 9.236 55.4153 9.98 55.4153 10.836C55.4153 11.692 55.2353 12.436 54.8753 13.068C54.5233 13.692 54.0113 14.172 53.3393 14.508C52.6753 14.836 51.8873 15 50.9753 15H48.3713V6.636H50.9753ZM50.9753 14.1C52.0553 14.1 52.8793 13.816 53.4473 13.248C54.0153 12.672 54.2993 11.868 54.2993 10.836C54.2993 9.796 54.0113 8.984 53.4353 8.4C52.8673 7.816 52.0473 7.524 50.9753 7.524H49.4633V14.1H50.9753ZM57.7677 7.524V10.32H60.8157V11.22H57.7677V14.1H61.1757V15H56.6757V6.624H61.1757V7.524H57.7677ZM67.3761 6.636V7.524H63.7401V10.344H66.6921V11.232H63.7401V15H62.6481V6.636H67.3761ZM68.0709 13.068V12.24L72.2829 6.408H73.5909V12.12H74.7909V13.068H73.5909V15H72.5109V13.068H68.0709ZM72.5589 7.548L69.3309 12.12H72.5589V7.548ZM12.276 25.272H8.064V28.008C8.248 27.752 8.52 27.544 8.88 27.384C9.24 27.216 9.628 27.132 10.044 27.132C10.708 27.132 11.248 27.272 11.664 27.552C12.08 27.824 12.376 28.18 12.552 28.62C12.736 29.052 12.828 29.512 12.828 30C12.828 30.576 12.72 31.092 12.504 31.548C12.288 32.004 11.956 32.364 11.508 32.628C11.068 32.892 10.52 33.024 9.864 33.024C9.024 33.024 8.344 32.808 7.824 32.376C7.304 31.944 6.988 31.368 6.876 30.648H7.944C8.048 31.104 8.268 31.46 8.604 31.716C8.94 31.972 9.364 32.1 9.876 32.1C10.508 32.1 10.984 31.912 11.304 31.536C11.624 31.152 11.784 30.648 11.784 30.024C11.784 29.4 11.624 28.92 11.304 28.584C10.984 28.24 10.512 28.068 9.888 28.068C9.464 28.068 9.092 28.172 8.772 28.38C8.46 28.58 8.232 28.856 8.088 29.208H7.056V24.312H12.276V25.272ZM18.9352 26.388C18.7592 25.5 18.2112 25.056 17.2912 25.056C16.5792 25.056 16.0472 25.332 15.6952 25.884C15.3432 26.428 15.1712 27.328 15.1792 28.584C15.3632 28.168 15.6672 27.844 16.0912 27.612C16.5232 27.372 17.0032 27.252 17.5312 27.252C18.3552 27.252 19.0112 27.508 19.4992 28.02C19.9952 28.532 20.2432 29.24 20.2432 30.144C20.2432 30.688 20.1352 31.176 19.9192 31.608C19.7112 32.04 19.3912 32.384 18.9592 32.64C18.5352 32.896 18.0192 33.024 17.4112 33.024C16.5872 33.024 15.9432 32.84 15.4792 32.472C15.0152 32.104 14.6912 31.596 14.5072 30.948C14.3232 30.3 14.2312 29.5 14.2312 28.548C14.2312 25.612 15.2552 24.144 17.3032 24.144C18.0872 24.144 18.7032 24.356 19.1512 24.78C19.5992 25.204 19.8632 25.74 19.9432 26.388H18.9352ZM17.3032 28.176C16.9592 28.176 16.6352 28.248 16.3312 28.392C16.0272 28.528 15.7792 28.74 15.5872 29.028C15.4032 29.308 15.3112 29.652 15.3112 30.06C15.3112 30.668 15.4872 31.164 15.8392 31.548C16.1912 31.924 16.6952 32.112 17.3512 32.112C17.9112 32.112 18.3552 31.94 18.6832 31.596C19.0192 31.244 19.1872 30.772 19.1872 30.18C19.1872 29.556 19.0272 29.068 18.7072 28.716C18.3872 28.356 17.9192 28.176 17.3032 28.176ZM22.8083 24.636V33H21.7163V24.636H22.8083ZM28.7015 24.636V30.816C28.7015 31.504 28.4895 32.056 28.0655 32.472C27.6415 32.88 27.0815 33.084 26.3855 33.084C25.6815 33.084 25.1175 32.876 24.6935 32.46C24.2695 32.036 24.0575 31.46 24.0575 30.732H25.1495C25.1575 31.14 25.2615 31.472 25.4615 31.728C25.6695 31.984 25.9775 32.112 26.3855 32.112C26.7935 32.112 27.0975 31.992 27.2975 31.752C27.4975 31.504 27.5975 31.192 27.5975 30.816V24.636H28.7015ZM35.2088 33L31.7648 29.184V33H30.6728V24.636H31.7648V28.512L35.2208 24.636H36.6008L32.8088 28.824L36.6368 33H35.2088Z" fill="#505050"/>
<path d="M42.125 31.9783C42.125 32.1028 42.1908 32.2222 42.3081 32.3102C42.4253 32.3982 42.5842 32.4476 42.75 32.4476H44V33.3863H42.4375C42.0938 33.3863 41.5 33.1751 41.5 32.9169C41.5 33.1751 40.9062 33.3863 40.5625 33.3863H39V32.4476H40.25C40.4158 32.4476 40.5747 32.3982 40.6919 32.3102C40.8092 32.2222 40.875 32.1028 40.875 31.9783V25.4079C40.875 25.2835 40.8092 25.1641 40.6919 25.0761C40.5747 24.9881 40.4158 24.9386 40.25 24.9386H39V24H40.5625C40.9062 24 41.5 24.2112 41.5 24.4693C41.5 24.2112 42.0938 24 42.4375 24H44V24.9386H42.75C42.5842 24.9386 42.4253 24.9881 42.3081 25.0761C42.1908 25.1641 42.125 25.2835 42.125 25.4079V31.9783Z" fill="#C4C4C4"/>
<path d="M86 41.5L85.1213 42.4998" stroke="#C4C4C4" stroke-linecap="round"/>
<path d="M85.9999 38.9489L82.4647 42.4848" stroke="#C4C4C4" stroke-linecap="round"/>
<line x1="86" y1="35.7071" x2="79.2047" y2="42.5024" stroke="#C4C4C4" stroke-linecap="round"/>
</svg>
