<svg width="83" height="63" viewBox="0 0 83 63" fill="none" xmlns="http://www.w3.org/2000/svg">
<path d="M5.868 11.14H2.22L1.548 13H0.396L3.42 4.684H4.68L7.692 13H6.54L5.868 11.14ZM5.556 10.252L4.044 6.028L2.532 10.252H5.556ZM13.0179 8.692C13.3219 8.74 13.5979 8.864 13.8459 9.064C14.1019 9.264 14.3019 9.512 14.4459 9.808C14.5979 10.104 14.6739 10.42 14.6739 10.756C14.6739 11.18 14.5659 11.564 14.3499 11.908C14.1339 12.244 13.8179 12.512 13.4019 12.712C12.9939 12.904 12.5099 13 11.9499 13H8.82994V4.636H11.8299C12.3979 4.636 12.8819 4.732 13.2819 4.924C13.6819 5.108 13.9819 5.36 14.1819 5.68C14.3819 6 14.4819 6.36 14.4819 6.76C14.4819 7.256 14.3459 7.668 14.0739 7.996C13.8099 8.316 13.4579 8.548 13.0179 8.692ZM9.92194 8.248H11.7579C12.2699 8.248 12.6659 8.128 12.9459 7.888C13.2259 7.648 13.3659 7.316 13.3659 6.892C13.3659 6.468 13.2259 6.136 12.9459 5.896C12.6659 5.656 12.2619 5.536 11.7339 5.536H9.92194V8.248ZM11.8539 12.1C12.3979 12.1 12.8219 11.972 13.1259 11.716C13.4299 11.46 13.5819 11.104 13.5819 10.648C13.5819 10.184 13.4219 9.82 13.1019 9.556C12.7819 9.284 12.3539 9.148 11.8179 9.148H9.92194V12.1H11.8539ZM15.6013 8.812C15.6013 7.996 15.7853 7.264 16.1533 6.616C16.5213 5.96 17.0213 5.448 17.6533 5.08C18.2933 4.712 19.0013 4.528 19.7773 4.528C20.6893 4.528 21.4853 4.748 22.1653 5.188C22.8453 5.628 23.3413 6.252 23.6533 7.06H22.3453C22.1133 6.556 21.7773 6.168 21.3373 5.896C20.9053 5.624 20.3853 5.488 19.7773 5.488C19.1933 5.488 18.6693 5.624 18.2053 5.896C17.7413 6.168 17.3773 6.556 17.1133 7.06C16.8493 7.556 16.7173 8.14 16.7173 8.812C16.7173 9.476 16.8493 10.06 17.1133 10.564C17.3773 11.06 17.7413 11.444 18.2053 11.716C18.6693 11.988 19.1933 12.124 19.7773 12.124C20.3853 12.124 20.9053 11.992 21.3373 11.728C21.7773 11.456 22.1133 11.068 22.3453 10.564H23.6533C23.3413 11.364 22.8453 11.984 22.1653 12.424C21.4853 12.856 20.6893 13.072 19.7773 13.072C19.0013 13.072 18.2933 12.892 17.6533 12.532C17.0213 12.164 16.5213 11.656 16.1533 11.008C15.7853 10.36 15.6013 9.628 15.6013 8.812ZM27.7028 4.636C28.6148 4.636 29.4028 4.808 30.0668 5.152C30.7388 5.488 31.2508 5.972 31.6028 6.604C31.9628 7.236 32.1428 7.98 32.1428 8.836C32.1428 9.692 31.9628 10.436 31.6028 11.068C31.2508 11.692 30.7388 12.172 30.0668 12.508C29.4028 12.836 28.6148 13 27.7028 13H25.0988V4.636H27.7028ZM27.7028 12.1C28.7828 12.1 29.6068 11.816 30.1748 11.248C30.7428 10.672 31.0268 9.868 31.0268 8.836C31.0268 7.796 30.7388 6.984 30.1628 6.4C29.5948 5.816 28.7748 5.524 27.7028 5.524H26.1908V12.1H27.7028Z" fill="#C4C4C4"/>
<path d="M3.528 31.636C4.44 31.636 5.228 31.808 5.892 32.152C6.564 32.488 7.076 32.972 7.428 33.604C7.788 34.236 7.968 34.98 7.968 35.836C7.968 36.692 7.788 37.436 7.428 38.068C7.076 38.692 6.564 39.172 5.892 39.508C5.228 39.836 4.44 40 3.528 40H0.924V31.636H3.528ZM3.528 39.1C4.608 39.1 5.432 38.816 6 38.248C6.568 37.672 6.852 36.868 6.852 35.836C6.852 34.796 6.564 33.984 5.988 33.4C5.42 32.816 4.6 32.524 3.528 32.524H2.016V39.1H3.528ZM10.3204 32.524V35.32H13.3684V36.22H10.3204V39.1H13.7284V40H9.22837V31.624H13.7284V32.524H10.3204ZM19.9287 31.636V32.524H16.2927V35.344H19.2447V36.232H16.2927V40H15.2007V31.636H19.9287ZM27.4036 34.06C27.1716 33.572 26.8356 33.196 26.3956 32.932C25.9556 32.66 25.4436 32.524 24.8596 32.524C24.2756 32.524 23.7476 32.66 23.2756 32.932C22.8116 33.196 22.4436 33.58 22.1716 34.084C21.9076 34.58 21.7756 35.156 21.7756 35.812C21.7756 36.468 21.9076 37.044 22.1716 37.54C22.4436 38.036 22.8116 38.42 23.2756 38.692C23.7476 38.956 24.2756 39.088 24.8596 39.088C25.6756 39.088 26.3476 38.844 26.8756 38.356C27.4036 37.868 27.7116 37.208 27.7996 36.376H24.4636V35.488H28.9636V36.328C28.8996 37.016 28.6836 37.648 28.3156 38.224C27.9476 38.792 27.4636 39.244 26.8636 39.58C26.2636 39.908 25.5956 40.072 24.8596 40.072C24.0836 40.072 23.3756 39.892 22.7356 39.532C22.0956 39.164 21.5876 38.656 21.2116 38.008C20.8436 37.36 20.6596 36.628 20.6596 35.812C20.6596 34.996 20.8436 34.264 21.2116 33.616C21.5876 32.96 22.0956 32.452 22.7356 32.092C23.3756 31.724 24.0836 31.54 24.8596 31.54C25.7476 31.54 26.5316 31.76 27.2116 32.2C27.8996 32.64 28.3996 33.26 28.7116 34.06H27.4036ZM36.6714 31.636V40H35.5794V36.208H31.3194V40H30.2274V31.636H31.3194V35.308H35.5794V31.636H36.6714ZM39.448 31.636V40H38.356V31.636H39.448ZM45.3412 31.636V37.816C45.3412 38.504 45.1292 39.056 44.7052 39.472C44.2812 39.88 43.7212 40.084 43.0252 40.084C42.3212 40.084 41.7572 39.876 41.3332 39.46C40.9092 39.036 40.6972 38.46 40.6972 37.732H41.7892C41.7972 38.14 41.9012 38.472 42.1012 38.728C42.3092 38.984 42.6172 39.112 43.0252 39.112C43.4332 39.112 43.7372 38.992 43.9372 38.752C44.1372 38.504 44.2372 38.192 44.2372 37.816V31.636H45.3412ZM51.8484 40L48.4044 36.184V40H47.3124V31.636H48.4044V35.512L51.8604 31.636H53.2404L49.4484 35.824L53.2764 40H51.8484ZM55.408 39.112H58.336V40H54.316V31.636H55.408V39.112ZM67.7997 31.696V40H66.7077V33.808L63.9477 40H63.1797L60.4077 33.796V40H59.3157V31.696H60.4917L63.5637 38.56L66.6357 31.696H67.7997ZM76.0477 40H74.9557L70.5637 33.34V40H69.4717V31.624H70.5637L74.9557 38.272V31.624H76.0477V40ZM4.716 58.084C3.94 58.084 3.232 57.904 2.592 57.544C1.952 57.176 1.444 56.668 1.068 56.02C0.7 55.364 0.516 54.628 0.516 53.812C0.516 52.996 0.7 52.264 1.068 51.616C1.444 50.96 1.952 50.452 2.592 50.092C3.232 49.724 3.94 49.54 4.716 49.54C5.5 49.54 6.212 49.724 6.852 50.092C7.492 50.452 7.996 50.956 8.364 51.604C8.732 52.252 8.916 52.988 8.916 53.812C8.916 54.636 8.732 55.372 8.364 56.02C7.996 56.668 7.492 57.176 6.852 57.544C6.212 57.904 5.5 58.084 4.716 58.084ZM4.716 57.136C5.3 57.136 5.824 57 6.288 56.728C6.76 56.456 7.128 56.068 7.392 55.564C7.664 55.06 7.8 54.476 7.8 53.812C7.8 53.14 7.664 52.556 7.392 52.06C7.128 51.556 6.764 51.168 6.3 50.896C5.836 50.624 5.308 50.488 4.716 50.488C4.124 50.488 3.596 50.624 3.132 50.896C2.668 51.168 2.3 51.556 2.028 52.06C1.764 52.556 1.632 53.14 1.632 53.812C1.632 54.476 1.764 55.06 2.028 55.564C2.3 56.068 2.668 56.456 3.132 56.728C3.604 57 4.132 57.136 4.716 57.136ZM15.7696 52.084C15.7696 52.78 15.5296 53.36 15.0496 53.824C14.5776 54.28 13.8536 54.508 12.8776 54.508H11.2696V58H10.1776V49.636H12.8776C13.8216 49.636 14.5376 49.864 15.0256 50.32C15.5216 50.776 15.7696 51.364 15.7696 52.084ZM12.8776 53.608C13.4856 53.608 13.9336 53.476 14.2216 53.212C14.5096 52.948 14.6536 52.572 14.6536 52.084C14.6536 51.052 14.0616 50.536 12.8776 50.536H11.2696V53.608H12.8776ZM23.6548 59.584L21.9868 57.916C21.5788 58.028 21.1628 58.084 20.7388 58.084C19.9628 58.084 19.2548 57.904 18.6148 57.544C17.9748 57.176 17.4668 56.668 17.0908 56.02C16.7228 55.364 16.5388 54.628 16.5388 53.812C16.5388 52.996 16.7228 52.264 17.0908 51.616C17.4668 50.96 17.9748 50.452 18.6148 50.092C19.2548 49.724 19.9628 49.54 20.7388 49.54C21.5228 49.54 22.2348 49.724 22.8748 50.092C23.5148 50.452 24.0188 50.956 24.3868 51.604C24.7548 52.252 24.9388 52.988 24.9388 53.812C24.9388 54.612 24.7628 55.332 24.4108 55.972C24.0588 56.612 23.5748 57.116 22.9588 57.484L25.0708 59.584H23.6548ZM17.6548 53.812C17.6548 54.476 17.7868 55.06 18.0508 55.564C18.3228 56.068 18.6908 56.456 19.1548 56.728C19.6268 57 20.1548 57.136 20.7388 57.136C21.3228 57.136 21.8468 57 22.3108 56.728C22.7828 56.456 23.1508 56.068 23.4148 55.564C23.6868 55.06 23.8228 54.476 23.8228 53.812C23.8228 53.14 23.6868 52.556 23.4148 52.06C23.1508 51.556 22.7868 51.168 22.3228 50.896C21.8588 50.624 21.3308 50.488 20.7388 50.488C20.1468 50.488 19.6188 50.624 19.1548 50.896C18.6908 51.168 18.3228 51.556 18.0508 52.06C17.7868 52.556 17.6548 53.14 17.6548 53.812ZM30.6278 58L28.6358 54.58H27.3158V58H26.2238V49.636H28.9238C29.5558 49.636 30.0878 49.744 30.5198 49.96C30.9598 50.176 31.2878 50.468 31.5038 50.836C31.7198 51.204 31.8278 51.624 31.8278 52.096C31.8278 52.672 31.6598 53.18 31.3238 53.62C30.9958 54.06 30.4998 54.352 29.8358 54.496L31.9358 58H30.6278ZM27.3158 53.704H28.9238C29.5158 53.704 29.9598 53.56 30.2558 53.272C30.5518 52.976 30.6998 52.584 30.6998 52.096C30.6998 51.6 30.5518 51.216 30.2558 50.944C29.9678 50.672 29.5238 50.536 28.9238 50.536H27.3158V53.704ZM35.9966 58.084C35.4446 58.084 34.9486 57.988 34.5086 57.796C34.0766 57.596 33.7366 57.324 33.4886 56.98C33.2406 56.628 33.1126 56.224 33.1046 55.768H34.2686C34.3086 56.16 34.4686 56.492 34.7486 56.764C35.0366 57.028 35.4526 57.16 35.9966 57.16C36.5166 57.16 36.9246 57.032 37.2206 56.776C37.5246 56.512 37.6766 56.176 37.6766 55.768C37.6766 55.448 37.5886 55.188 37.4126 54.988C37.2366 54.788 37.0166 54.636 36.7526 54.532C36.4886 54.428 36.1326 54.316 35.6846 54.196C35.1326 54.052 34.6886 53.908 34.3526 53.764C34.0246 53.62 33.7406 53.396 33.5006 53.092C33.2686 52.78 33.1526 52.364 33.1526 51.844C33.1526 51.388 33.2686 50.984 33.5006 50.632C33.7326 50.28 34.0566 50.008 34.4726 49.816C34.8966 49.624 35.3806 49.528 35.9246 49.528C36.7086 49.528 37.3486 49.724 37.8446 50.116C38.3486 50.508 38.6326 51.028 38.6966 51.676H37.4966C37.4566 51.356 37.2886 51.076 36.9926 50.836C36.6966 50.588 36.3046 50.464 35.8166 50.464C35.3606 50.464 34.9886 50.584 34.7006 50.824C34.4126 51.056 34.2686 51.384 34.2686 51.808C34.2686 52.112 34.3526 52.36 34.5206 52.552C34.6966 52.744 34.9086 52.892 35.1566 52.996C35.4126 53.092 35.7686 53.204 36.2246 53.332C36.7766 53.484 37.2206 53.636 37.5566 53.788C37.8926 53.932 38.1806 54.16 38.4206 54.472C38.6606 54.776 38.7806 55.192 38.7806 55.72C38.7806 56.128 38.6726 56.512 38.4566 56.872C38.2406 57.232 37.9206 57.524 37.4966 57.748C37.0726 57.972 36.5726 58.084 35.9966 58.084ZM45.3556 49.636V50.524H43.0756V58H41.9836V50.524H39.6916V49.636H45.3556ZM47.5878 49.636V54.928C47.5878 55.672 47.7678 56.224 48.1278 56.584C48.4958 56.944 49.0038 57.124 49.6518 57.124C50.2918 57.124 50.7918 56.944 51.1518 56.584C51.5198 56.224 51.7038 55.672 51.7038 54.928V49.636H52.7958V54.916C52.7958 55.612 52.6558 56.2 52.3758 56.68C52.0958 57.152 51.7158 57.504 51.2358 57.736C50.7638 57.968 50.2318 58.084 49.6398 58.084C49.0478 58.084 48.5118 57.968 48.0318 57.736C47.5598 57.504 47.1838 57.152 46.9038 56.68C46.6318 56.2 46.4958 55.612 46.4958 54.916V49.636H47.5878ZM61.3494 49.636L58.1934 58H56.9334L53.7774 49.636H54.9414L57.5694 56.848L60.1974 49.636H61.3494Z" fill="#C4C4C4"/>
</svg>
