<svg width="90" height="22" viewBox="0 0 90 22" fill="none" xmlns="http://www.w3.org/2000/svg">
<rect width="90" height="22" rx="4" fill="#EEEEEE"/>
<path d="M6.456 7.32V6.324H8.712V15H7.608V7.32H6.456ZM10.2757 14.124C11.2917 13.308 12.0877 12.64 12.6637 12.12C13.2398 11.592 13.7238 11.044 14.1158 10.476C14.5158 9.9 14.7158 9.336 14.7158 8.784C14.7158 8.264 14.5878 7.856 14.3318 7.56C14.0838 7.256 13.6798 7.104 13.1198 7.104C12.5758 7.104 12.1518 7.276 11.8478 7.62C11.5518 7.956 11.3918 8.408 11.3677 8.976H10.3117C10.3437 8.08 10.6157 7.388 11.1278 6.9C11.6398 6.412 12.2997 6.168 13.1077 6.168C13.9318 6.168 14.5838 6.396 15.0638 6.852C15.5518 7.308 15.7958 7.936 15.7958 8.736C15.7958 9.4 15.5958 10.048 15.1958 10.68C14.8038 11.304 14.3558 11.856 13.8518 12.336C13.3478 12.808 12.7038 13.36 11.9198 13.992H16.0477V14.904H10.2757V14.124ZM17.1061 8.508C17.1621 7.772 17.4461 7.196 17.9581 6.78C18.4701 6.364 19.1341 6.156 19.9501 6.156C20.4941 6.156 20.9621 6.256 21.3541 6.456C21.7541 6.648 22.0541 6.912 22.2541 7.248C22.4621 7.584 22.5661 7.964 22.5661 8.388C22.5661 8.884 22.4221 9.312 22.1341 9.672C21.8541 10.032 21.4861 10.264 21.0301 10.368V10.428C21.5501 10.556 21.9621 10.808 22.2661 11.184C22.5701 11.56 22.7221 12.052 22.7221 12.66C22.7221 13.116 22.6181 13.528 22.4101 13.896C22.2021 14.256 21.8901 14.54 21.4741 14.748C21.0581 14.956 20.5581 15.06 19.9741 15.06C19.1261 15.06 18.4301 14.84 17.8861 14.4C17.3421 13.952 17.0381 13.32 16.9741 12.504H18.0301C18.0861 12.984 18.2821 13.376 18.6181 13.68C18.9541 13.984 19.4021 14.136 19.9621 14.136C20.5221 14.136 20.9461 13.992 21.2341 13.704C21.5301 13.408 21.6781 13.028 21.6781 12.564C21.6781 11.964 21.4781 11.532 21.0781 11.268C20.6781 11.004 20.0741 10.872 19.2661 10.872H18.9901V9.96H19.2781C20.0141 9.952 20.5701 9.832 20.9461 9.6C21.3221 9.36 21.5101 8.992 21.5101 8.496C21.5101 8.072 21.3701 7.732 21.0901 7.476C20.8181 7.22 20.4261 7.092 19.9141 7.092C19.4181 7.092 19.0181 7.22 18.7141 7.476C18.4101 7.732 18.2301 8.076 18.1741 8.508H17.1061ZM23.7525 13.068V12.24L27.9645 6.408H29.2725V12.12H30.4725V13.068H29.2725V15H28.1925V13.068H23.7525ZM28.2405 7.548L25.0125 12.12H28.2405V7.548ZM36.9154 7.272H32.7034V10.008C32.8874 9.752 33.1594 9.544 33.5194 9.384C33.8794 9.216 34.2674 9.132 34.6834 9.132C35.3474 9.132 35.8874 9.272 36.3034 9.552C36.7194 9.824 37.0154 10.18 37.1914 10.62C37.3754 11.052 37.4674 11.512 37.4674 12C37.4674 12.576 37.3594 13.092 37.1434 13.548C36.9274 14.004 36.5954 14.364 36.1474 14.628C35.7074 14.892 35.1594 15.024 34.5034 15.024C33.6634 15.024 32.9834 14.808 32.4634 14.376C31.9434 13.944 31.6274 13.368 31.5154 12.648H32.5834C32.6874 13.104 32.9074 13.46 33.2434 13.716C33.5794 13.972 34.0034 14.1 34.5154 14.1C35.1474 14.1 35.6234 13.912 35.9434 13.536C36.2634 13.152 36.4234 12.648 36.4234 12.024C36.4234 11.4 36.2634 10.92 35.9434 10.584C35.6234 10.24 35.1514 10.068 34.5274 10.068C34.1034 10.068 33.7314 10.172 33.4114 10.38C33.0994 10.58 32.8714 10.856 32.7274 11.208H31.6954V6.312H36.9154V7.272ZM43.5745 8.388C43.3985 7.5 42.8505 7.056 41.9305 7.056C41.2185 7.056 40.6865 7.332 40.3345 7.884C39.9825 8.428 39.8105 9.328 39.8185 10.584C40.0025 10.168 40.3065 9.844 40.7305 9.612C41.1625 9.372 41.6425 9.252 42.1705 9.252C42.9945 9.252 43.6505 9.508 44.1385 10.02C44.6345 10.532 44.8825 11.24 44.8825 12.144C44.8825 12.688 44.7745 13.176 44.5585 13.608C44.3505 14.04 44.0305 14.384 43.5985 14.64C43.1745 14.896 42.6585 15.024 42.0505 15.024C41.2265 15.024 40.5825 14.84 40.1185 14.472C39.6545 14.104 39.3305 13.596 39.1465 12.948C38.9625 12.3 38.8705 11.5 38.8705 10.548C38.8705 7.612 39.8945 6.144 41.9425 6.144C42.7265 6.144 43.3425 6.356 43.7905 6.78C44.2385 7.204 44.5025 7.74 44.5825 8.388H43.5745ZM41.9425 10.176C41.5985 10.176 41.2745 10.248 40.9705 10.392C40.6665 10.528 40.4185 10.74 40.2265 11.028C40.0425 11.308 39.9505 11.652 39.9505 12.06C39.9505 12.668 40.1265 13.164 40.4785 13.548C40.8305 13.924 41.3345 14.112 41.9905 14.112C42.5505 14.112 42.9945 13.94 43.3225 13.596C43.6585 13.244 43.8265 12.772 43.8265 12.18C43.8265 11.556 43.6665 11.068 43.3465 10.716C43.0265 10.356 42.5585 10.176 41.9425 10.176Z" fill="#505050"/>
<path d="M50.125 13.9783C50.125 14.1028 50.1908 14.2221 50.3081 14.3101C50.4253 14.3981 50.5842 14.4476 50.75 14.4476H52V15.3862H50.4375C50.0938 15.3862 49.5 15.175 49.5 14.9169C49.5 15.175 48.9062 15.3862 48.5625 15.3862H47V14.4476H48.25C48.4158 14.4476 48.5747 14.3981 48.6919 14.3101C48.8092 14.2221 48.875 14.1028 48.875 13.9783V7.40793C48.875 7.28346 48.8092 7.16409 48.6919 7.07608C48.5747 6.98807 48.4158 6.93862 48.25 6.93862H47V6H48.5625C48.9062 6 49.5 6.21119 49.5 6.46931C49.5 6.21119 50.0938 6 50.4375 6H52V6.93862H50.75C50.5842 6.93862 50.4253 6.98807 50.3081 7.07608C50.1908 7.16409 50.125 7.28346 50.125 7.40793V13.9783Z" fill="#C4C4C4"/>
</svg>
